<svg width="92" height="32" viewBox="0 0 92 32" fill="none" xmlns="http://www.w3.org/2000/svg">
<path fill-rule="evenodd" clip-rule="evenodd" d="M20.1848 8.11346C20.1848 7.95759 20.2529 7.87695 20.4342 7.87695H21.166C22.0453 7.87695 22.3339 8.48606 22.3339 8.98485C22.3339 9.50744 22.108 9.75634 21.7617 9.91169V9.92507C22.3176 10.024 22.6464 10.41 22.6464 11.039C22.6464 11.705 22.2554 12.3077 21.3644 12.3077H20.4342C20.2524 12.3077 20.1848 12.228 20.1848 12.0716V8.11346ZM21.189 9.7756H20.5933V8.28766H21.1998C21.6764 8.28766 21.9263 8.64245 21.9263 9.00318C21.9263 9.45199 21.6088 9.7756 21.189 9.7756ZM21.3193 11.8985H20.5933V10.1483H21.3139C21.8694 10.1483 22.2378 10.51 22.2378 11.027C22.2378 11.5991 21.8915 11.8985 21.3193 11.8985Z" fill="#969696"/>
<path fill-rule="evenodd" clip-rule="evenodd" d="M24.0554 12.1058L24.0478 12.1217C23.9991 12.2244 23.9596 12.3077 23.8199 12.3077C23.696 12.3077 23.6308 12.2279 23.6308 12.136C23.6308 12.0868 23.6487 12.0139 23.6726 11.9521L25.0241 8.19509L25.025 8.19282C25.0774 8.05262 25.1431 7.87695 25.3544 7.87695C25.5653 7.87695 25.6309 8.05254 25.6833 8.19274L27.0357 11.9521C27.0592 12.0139 27.077 12.0868 27.077 12.136C27.077 12.2279 27.0118 12.3077 26.888 12.3077C26.7406 12.3077 26.6933 12.2162 26.652 12.1058L26.3752 11.3221H24.3331L24.0554 12.1058ZM25.36 8.45144H25.3483L24.4743 10.9183H26.2335L25.36 8.45144Z" fill="#969696"/>
<path d="M28.5266 12.026C28.5266 12.2089 28.4424 12.3077 28.2942 12.3077C28.1459 12.3077 28.0618 12.2094 28.0618 12.026V8.13377C28.0618 7.96254 28.1654 7.87695 28.2942 7.87695C28.4229 7.87695 28.5009 7.94991 28.565 8.03649L31.0309 11.4564H31.0432V8.15861C31.0432 7.97423 31.1278 7.87695 31.2755 7.87695C31.4233 7.87695 31.5079 7.97423 31.5079 8.15861V12.0382C31.5079 12.2464 31.4177 12.3077 31.2884 12.3077C31.1658 12.3077 31.1145 12.2528 31.0365 12.1481L28.5394 8.68446H28.5266V12.026Z" fill="#969696"/>
<path d="M35.1476 8.76475C35.2438 8.76475 35.3516 8.68446 35.3516 8.53121C35.3516 8.31768 34.7405 7.87695 33.9746 7.87695C32.638 7.87695 32.0001 9.0094 32.0001 10.1526C32.0001 11.3168 32.638 12.3077 34.0267 12.3077C34.8605 12.3077 35.4463 11.8854 35.4463 11.6957C35.4463 11.5425 35.3704 11.4749 35.2554 11.4749C35.2038 11.4749 35.1446 11.5168 35.0633 11.5744C34.8847 11.701 34.5993 11.9034 34.052 11.9034C32.957 11.9034 32.4983 11.0531 32.4983 10.1526C32.4983 9.26581 33.0147 8.2812 33.9695 8.2812C34.4693 8.2812 34.7412 8.49515 34.9233 8.63842C35.0149 8.71054 35.0838 8.76475 35.1476 8.76475Z" fill="#969696"/>
<path fill-rule="evenodd" clip-rule="evenodd" d="M39.3846 10.0923C39.3846 8.98508 38.8081 7.87695 37.6613 7.87695C36.5146 7.87695 35.9384 8.98508 35.9384 10.0923C35.9384 11.1995 36.515 12.3077 37.6613 12.3077C38.8081 12.3077 39.3846 11.1995 39.3846 10.0923ZM37.6613 8.2812C38.6148 8.2812 38.9401 9.27209 38.9401 10.0923C38.9401 10.9125 38.6144 11.9034 37.6613 11.9034C36.7087 11.9034 36.3835 10.9125 36.3835 10.0923C36.3835 9.27209 36.7087 8.2812 37.6613 8.2812Z" fill="#969696"/>
<path d="M20.8518 25.6C21.2612 25.6 21.5189 25.3307 21.5189 24.8076V20.7385H26.2359V24.8076C26.2359 25.3303 26.4942 25.6 26.9034 25.6C27.3127 25.6 27.5695 25.3307 27.5695 24.8076V15.5626C27.5695 15.0395 27.3127 14.7692 26.9034 14.7692C26.4942 14.7692 26.2359 15.0399 26.2359 15.5626V19.6009H21.5189V15.5626C21.5189 15.0395 21.2612 14.7692 20.8518 14.7692C20.4426 14.7692 20.1849 15.0399 20.1849 15.5626V24.8076C20.1849 25.3303 20.4426 25.6 20.8518 25.6Z" fill="#969696"/>
<path d="M31.0155 15.577C31.0155 15.1293 30.6876 14.7692 30.277 14.7692C29.8669 14.7692 29.5385 15.1289 29.5385 15.577C29.5385 16.026 29.8669 16.3847 30.277 16.3847C30.6876 16.3847 31.0155 16.0266 31.0155 15.577Z" fill="#969696"/>
<path d="M30.277 25.6C30.6467 25.6 30.8792 25.3303 30.8792 24.8966V18.1647C30.8792 17.7315 30.6467 17.4613 30.277 17.4613C29.9078 17.4613 29.6753 17.7315 29.6753 18.1647V24.8966C29.6753 25.3303 29.9082 25.6 30.277 25.6Z" fill="#969696"/>
<path fill-rule="evenodd" clip-rule="evenodd" d="M32.9848 17.9368C32.9848 17.502 33.2397 17.2308 33.6447 17.2308C34.0506 17.2308 34.306 17.502 34.306 17.9368V18.3282H34.3354C34.7114 17.6072 35.4171 17.2313 36.4684 17.2313C38.6303 17.2313 39.8771 19.1989 39.8771 21.3156C39.8771 23.4333 38.6303 25.4005 36.4684 25.4005C35.4166 25.4005 34.6805 24.815 34.3354 24.3194H34.306V27.8478C34.306 28.2836 34.0506 28.5539 33.6447 28.5539C33.2397 28.5539 32.9848 28.2836 32.9848 27.8478V17.9368ZM36.3632 24.2586C37.9855 24.2586 38.5555 22.667 38.5555 21.3146C38.5555 19.9643 37.985 18.3721 36.3632 18.3721C34.7413 18.3721 34.1708 19.9643 34.1708 21.3146C34.1708 22.6674 34.7413 24.2586 36.3632 24.2586Z" fill="#969696"/>
<path fill-rule="evenodd" clip-rule="evenodd" d="M47.754 21.169C47.754 19.128 46.5171 17.2308 44.3079 17.2308C42.0987 17.2308 40.8618 19.128 40.8618 21.169C40.8618 23.211 42.0987 25.1077 44.3079 25.1077C46.5171 25.1077 47.754 23.211 47.754 21.169ZM46.4585 21.1685C46.4585 22.4725 45.8989 24.0072 44.3079 24.0072C42.7174 24.0072 42.1583 22.4729 42.1578 21.1685C42.1578 19.8665 42.7174 18.3313 44.3079 18.3313C45.8985 18.3313 46.4585 19.8665 46.4585 21.1685Z" fill="#969696"/>
<path d="M50.4619 15.2616C50.0861 15.2616 49.8493 15.5269 49.8493 15.9556V17.6541H49.3501C48.9463 17.6541 48.7386 17.8607 48.7386 18.2153C48.7386 18.5699 48.9463 18.7764 49.3501 18.7764H49.8493V24.9055C49.8493 25.3337 50.0861 25.6 50.4619 25.6C50.8372 25.6 51.0734 25.3337 51.0734 24.9055V18.7764H51.5738C51.9764 18.7764 52.1847 18.5699 52.1847 18.2153C52.1847 17.8607 51.9764 17.6541 51.5738 17.6541H51.0734V15.9556C51.0734 15.5269 50.8372 15.2616 50.4619 15.2616Z" fill="#969696"/>
<path fill-rule="evenodd" clip-rule="evenodd" d="M56.2864 24.0072C54.8272 24.0072 53.9737 22.979 53.9731 21.6623H58.8487C59.4084 21.6623 59.5696 21.4301 59.5696 20.9815C59.5696 19.128 58.3332 17.2308 56.1968 17.2308C54.0027 17.2308 52.6774 19.0847 52.6774 21.169C52.6774 23.211 53.7671 25.1077 56.2707 25.1077C57.8026 25.1077 59.4084 24.1523 59.4084 23.5297C59.4084 23.1672 59.1728 22.9648 58.936 22.9648C58.7678 22.9648 58.6044 23.0902 58.3914 23.254C57.99 23.5624 57.411 24.0072 56.2864 24.0072ZM56.1962 18.3322C57.6257 18.3322 58.2733 19.6064 58.2733 20.7074H53.9731C54.0167 19.5347 54.591 18.2741 56.1962 18.3322Z" fill="#969696"/>
<path d="M66.9541 18.2016C66.9541 17.6794 66.1367 17.2308 64.7485 17.2308C62.2484 17.2308 61.0458 19.1281 61.0463 21.1688C61.0463 23.2108 62.249 25.1077 64.7485 25.1077C66.1524 25.1077 66.9082 24.5865 66.9082 24.109C66.9082 23.7618 66.6917 23.5738 66.3828 23.5738C66.209 23.5738 66.0653 23.644 65.8934 23.728C65.6378 23.8528 65.32 24.008 64.7485 24.008C63.067 24.008 62.4043 22.4732 62.4043 21.1692C62.4043 19.8671 63.067 18.3318 64.7485 18.3318C65.2762 18.3318 65.5682 18.4638 65.8191 18.5771C66.0079 18.6624 66.1734 18.7372 66.3985 18.7372C66.722 18.7372 66.9541 18.4622 66.9541 18.2016Z" fill="#969696"/>
<path fill-rule="evenodd" clip-rule="evenodd" d="M74.2192 25.1077C74.4723 25.1077 74.8307 24.9332 74.8307 24.4851V17.8539C74.8307 17.4057 74.4723 17.2308 74.2192 17.2308C73.9521 17.2308 73.6094 17.4057 73.6094 17.8539V18.2596H73.5797C72.9694 17.6086 72.33 17.2308 71.4224 17.2308C69.1888 17.2308 67.9384 19.128 67.9384 21.169C67.9384 23.211 69.1888 25.1077 71.4224 25.1077C72.2701 25.1077 73.0136 24.7313 73.5797 23.9499H73.6094V24.4851C73.6094 24.9332 73.9515 25.1077 74.2192 25.1077ZM73.5943 21.1685C73.5943 22.4725 73.0294 24.0072 71.4224 24.0072C69.8142 24.0072 69.2487 22.4729 69.2487 21.1685C69.2487 19.8665 69.8142 18.3313 71.4224 18.3313C73.0294 18.3313 73.5943 19.8665 73.5943 21.1685Z" fill="#969696"/>
<path d="M76.9776 17.2308C76.5674 17.2308 76.3085 17.4923 76.3085 17.9116L76.3079 24.4268C76.3079 24.8466 76.5668 25.1077 76.977 25.1077C77.3883 25.1077 77.6467 24.8466 77.6467 24.4268V20.7648C77.6467 19.2729 78.6183 18.7079 79.4107 18.5781C79.9728 18.4766 80.2462 18.2444 80.2462 17.8832C80.2462 17.5212 79.9734 17.2308 79.5015 17.2308C78.7265 17.2308 77.9812 17.9702 77.6775 18.5632H77.6472V17.9116C77.6472 17.4923 77.3883 17.2308 76.9776 17.2308Z" fill="#969696"/>
<path d="M83.2002 15.577C83.2002 15.1293 82.8715 14.7692 82.4619 14.7692C82.0517 14.7692 81.7235 15.1289 81.7229 15.577C81.7229 16.026 82.0511 16.3847 82.4619 16.3847C82.8715 16.3847 83.2002 16.0266 83.2002 15.577Z" fill="#969696"/>
<path d="M82.4619 25.6C82.8313 25.6 83.064 25.3303 83.064 24.8966V18.1647C83.064 17.7315 82.8313 17.4613 82.4619 17.4613C82.0924 17.4613 81.8608 17.7315 81.8608 18.1647V24.8966C81.8608 25.3303 82.0924 25.6 82.4619 25.6Z" fill="#969696"/>
<path fill-rule="evenodd" clip-rule="evenodd" d="M88.1241 17.2308C90.3321 17.2308 91.5696 19.128 91.5696 21.169C91.5696 23.211 90.3321 25.1077 88.1241 25.1077C85.9149 25.1077 84.6774 23.211 84.6774 21.169C84.6774 19.128 85.9149 17.2308 88.1241 17.2308ZM88.1241 24.0072C89.7142 24.0072 90.2739 22.4725 90.2739 21.1685C90.2739 19.8665 89.7142 18.3313 88.1241 18.3313C86.5334 18.3313 85.9737 19.8665 85.9737 21.1685C85.9742 22.4729 86.5334 24.0072 88.1241 24.0072Z" fill="#969696"/>
<path d="M0 23.1385V0H16.2462V23.1375L8.71529 18.7843L8.68009 18.7684C8.6455 18.7492 8.60924 18.7342 8.57289 18.7192L8.56343 18.7152C8.55324 18.7114 8.54326 18.7075 8.53337 18.7036C8.50955 18.6941 8.48623 18.6849 8.46173 18.6781C8.43553 18.6698 8.40909 18.6642 8.38205 18.6586C8.37127 18.6563 8.36038 18.654 8.34938 18.6515C8.3429 18.6504 8.33644 18.6492 8.32997 18.648C8.29895 18.6424 8.26803 18.6367 8.2361 18.6327C8.20487 18.6295 8.17428 18.6296 8.143 18.6298C8.13663 18.6298 8.13024 18.6298 8.12381 18.6298C8.11728 18.6298 8.11081 18.6298 8.10438 18.6298C8.07279 18.6296 8.04214 18.6295 8.01053 18.6327C7.97919 18.6368 7.94749 18.6424 7.91576 18.6481C7.90944 18.6493 7.90311 18.6504 7.89679 18.6515C7.88589 18.6541 7.87512 18.6564 7.8644 18.6588C7.8381 18.6645 7.81213 18.6702 7.78543 18.6781C7.75901 18.6852 7.73262 18.6957 7.70646 18.7061C7.69869 18.7092 7.69093 18.7123 7.6832 18.7152L7.67648 18.7181C7.63973 18.7335 7.60332 18.7488 7.56608 18.7684L7.53234 18.7843L0 23.1385Z" fill="#F37320"/>
<path d="M8.71209 21.322L16.2462 25.5419V32H0V25.5429L7.53356 21.322C7.89318 21.1213 8.34002 21.118 8.70295 21.3145L8.71209 21.322Z" fill="#F37320"/>
</svg>
