<svg width="24" height="24" viewBox="0 0 24 24" fill="none" xmlns="http://www.w3.org/2000/svg">
<path d="M12.6617 2.24559C12.6593 1.83138 12.3215 1.49758 11.9073 1.50001C11.4931 1.50245 11.1593 1.84021 11.1618 2.25441L11.242 15.8835L9.26016 13.9017C8.96727 13.6088 8.49239 13.6088 8.1995 13.9017C7.9066 14.1945 7.9066 14.6694 8.1995 14.9623L11.3815 18.1443C11.5221 18.285 11.7129 18.364 11.9118 18.364C12.1107 18.364 12.3015 18.285 12.4421 18.1443L15.6241 14.9623C15.917 14.6694 15.917 14.1945 15.6241 13.9017C15.3312 13.6088 14.8564 13.6088 14.5635 13.9017L12.7411 15.724L12.6617 2.24559Z" fill="white"/>
<path d="M4.5 15.75C4.5 15.3358 4.16421 15 3.75 15C3.33579 15 3 15.3358 3 15.75V20.25C3 21.4926 4.00736 22.5 5.25 22.5H18.75C19.9926 22.5 21 21.4926 21 20.25V15.75C21 15.3358 20.6642 15 20.25 15C19.8358 15 19.5 15.3358 19.5 15.75V20.25C19.5 20.6642 19.1642 21 18.75 21H5.25C4.83579 21 4.5 20.6642 4.5 20.25V15.75Z" fill="white"/>
</svg>
